<svg version="1.1" id="Layer_1" xmlns="http://www.w3.org/2000/svg" xmlns:xlink="http://www.w3.org/1999/xlink" x="0px" y="0px"
	 width="100%" viewBox="0 0 512 512" enable-background="new 0 0 512 512" xml:space="preserve">
<path fill="#FFFFFF" opacity="1.000000" stroke="none" 
	d="
M513.000000,123.000000 
	C513.000000,253.301636 513.000000,383.103271 513.000000,512.952454 
	C342.406677,512.952454 171.813370,512.952454 1.110020,512.952454 
	C1.110020,342.448395 1.110020,171.896698 1.110020,1.172504 
	C171.666519,1.172504 342.333252,1.172504 513.000000,1.172504 
	C513.000000,41.519932 513.000000,82.009964 513.000000,123.000000 
M261.093506,5.143968 
	C250.734100,5.457963 240.374695,5.771960 229.453217,5.458035 
	C228.147629,5.305442 226.842102,5.019710 225.536469,5.019320 
	C153.727371,4.997864 81.918205,5.037808 10.109346,4.907621 
	C5.779337,4.899772 4.917455,6.368500 4.923367,10.352551 
	C5.029198,81.661652 4.994150,152.970963 5.039932,224.280197 
	C5.040939,225.849823 5.634432,227.419052 5.972033,229.909409 
	C5.758916,237.610046 5.545800,245.310669 5.153211,253.930389 
	C5.483109,264.278137 5.813007,274.625916 5.494759,285.519928 
	C5.329962,286.820892 5.021376,288.121796 5.020955,289.422821 
	C4.997802,361.020905 5.038765,432.619019 4.904741,504.216858 
	C4.896751,508.484680 6.546187,509.063019 10.173402,509.058960 
	C81.438377,508.979553 152.703461,509.007996 223.968475,508.951324 
	C225.666748,508.949982 227.364426,508.223694 229.961533,507.713196 
	C237.884521,508.106506 245.808167,508.828064 253.730316,508.811890 
	C264.132568,508.790619 274.533630,508.188049 285.489075,508.489044 
	C286.955017,508.659363 288.420929,508.978210 289.886932,508.978699 
	C361.146545,509.003021 432.406250,508.953491 503.665527,509.106873 
	C508.295258,509.116852 509.090454,507.560791 509.083618,503.379486 
	C508.967072,431.953583 509.007568,360.527405 508.954498,289.101349 
	C508.953247,287.389771 508.274719,285.678741 507.783936,283.066071 
	C508.148926,275.801331 508.838898,268.534943 508.802338,261.272247 
	C508.748291,250.536026 508.178009,239.802444 508.483856,228.515533 
	C508.655914,227.050140 508.977997,225.584808 508.978516,224.119370 
	C509.003113,152.861206 508.953949,81.602951 509.106354,10.345117 
	C509.116211,5.731382 507.588898,4.908546 503.390381,4.915500 
	C431.965942,5.033796 360.541229,4.992768 289.116608,5.045609 
	C287.405304,5.046875 285.694489,5.722753 283.063812,6.160384 
	C276.047974,5.885152 269.032104,5.609921 261.093506,5.143968 
z"/>
<path fill="#B73360" opacity="1.000000" stroke="none" 
	d="
M284.935211,507.835510 
	C274.533630,508.188049 264.132568,508.790619 253.730316,508.811890 
	C245.808167,508.828064 237.884521,508.106506 229.172729,507.565552 
	C218.259003,505.536133 208.134079,503.654358 198.014496,501.417603 
	C199.015381,499.206635 199.676056,497.039795 201.062454,495.546844 
	C208.400070,487.645386 215.903778,479.897583 223.382904,472.128265 
	C228.175064,467.150177 233.130905,462.325775 237.825104,457.258087 
	C246.758560,447.613953 255.459442,437.752411 264.494202,428.205688 
	C266.300629,426.296814 269.166840,425.390869 271.672760,424.415344 
	C272.355011,431.144135 273.949310,433.042511 279.360077,433.069977 
	C294.659088,433.147675 309.959198,433.154266 325.258026,433.055756 
	C330.937836,433.019196 333.372253,430.367462 333.611816,424.768768 
	C334.060425,414.284637 330.920319,405.210175 323.402557,397.715454 
	C322.418030,396.734009 321.404877,395.194946 321.400635,393.910828 
	C321.370972,384.954742 321.603790,375.997803 322.076355,367.025208 
	C323.267914,366.634796 324.372803,366.482910 324.966125,365.850800 
	C330.136658,360.342377 335.143494,354.679718 340.335876,349.192444 
	C353.529419,335.249634 366.795654,321.375580 380.029388,307.470795 
	C393.086548,293.751465 406.068878,279.960022 419.213837,266.325378 
	C432.800354,252.232697 446.619110,238.363708 460.189240,224.255432 
	C468.455933,215.660950 476.296387,206.654556 484.619629,198.117249 
	C488.925751,193.700409 493.866852,189.902664 498.687683,186.139877 
	C499.193329,187.560654 499.626648,188.647537 499.857117,189.775848 
	C502.531647,202.869522 505.175537,215.969452 507.827515,229.067734 
	C508.178009,239.802444 508.748291,250.536026 508.802338,261.272247 
	C508.838898,268.534943 508.148926,275.801331 507.650055,283.862976 
	C506.997925,288.285339 506.497925,291.913544 505.958771,295.535889 
	C491.498444,392.685638 418.716614,474.560272 323.983582,499.815979 
	C311.165802,503.233154 297.960876,505.198120 284.935211,507.835510 
z"/>
<path fill="#F8F7F7" opacity="1.000000" stroke="none" 
	d="
M508.155701,228.791626 
	C505.175537,215.969452 502.531647,202.869522 499.857117,189.775848 
	C499.626648,188.647537 499.193329,187.560654 498.642456,185.746048 
	C495.786133,177.620972 493.141602,170.204407 490.424103,162.421509 
	C487.618164,156.678955 484.885193,151.302689 482.107971,145.600571 
	C481.669281,144.516785 481.274872,143.758881 480.931427,142.638046 
	C477.701874,136.424942 474.421295,130.574753 471.065155,124.394073 
	C465.480377,116.373436 459.971191,108.683289 454.369690,100.712097 
	C446.271118,91.769318 438.264801,83.107590 430.106934,74.174858 
	C422.680969,67.841194 415.406525,61.778530 407.951111,55.439598 
	C401.551575,51.027119 395.333038,46.890911 388.911041,42.489944 
	C381.587402,38.411839 374.467224,34.598488 367.094238,30.533546 
	C357.270111,26.427687 347.698792,22.573421 337.843445,18.498199 
	C325.760040,15.318913 313.960724,12.360581 301.819702,9.250900 
	C295.646515,8.094361 289.815002,7.089172 283.983459,6.083981 
	C285.694489,5.722753 287.405304,5.046875 289.116608,5.045609 
	C360.541229,4.992768 431.965942,5.033796 503.390381,4.915500 
	C507.588898,4.908546 509.116211,5.731382 509.106354,10.345117 
	C508.953949,81.602951 509.003113,152.861206 508.978516,224.119370 
	C508.977997,225.584808 508.655914,227.050140 508.155701,228.791626 
z"/>
<path fill="#F8F7F7" opacity="1.000000" stroke="none" 
	d="
M198.009140,501.772614 
	C208.134079,503.654358 218.259003,505.536133 228.723145,507.626709 
	C227.364426,508.223694 225.666748,508.949982 223.968475,508.951324 
	C152.703461,509.007996 81.438377,508.979553 10.173402,509.058960 
	C6.546187,509.063019 4.896751,508.484680 4.904741,504.216858 
	C5.038765,432.619019 4.997802,361.020905 5.020955,289.422821 
	C5.021376,288.121796 5.329962,286.820892 6.029394,285.529785 
	C6.934344,287.394867 7.304658,289.250092 7.679807,291.543274 
	C10.403300,304.345093 13.121960,316.708954 15.876241,329.450989 
	C19.144773,338.595581 22.377684,347.361938 25.701714,356.488708 
	C28.424398,362.275421 31.055965,367.701721 33.765453,373.483063 
	C36.811340,378.916626 39.779305,383.995148 42.839256,389.414673 
	C48.557426,397.624207 54.183613,405.492767 59.871162,413.690674 
	C66.423737,421.086090 72.914955,428.152161 79.571777,435.529083 
	C87.471336,442.570312 95.205269,449.300690 103.124496,456.310394 
	C114.447479,463.769684 125.585167,470.949707 136.969330,478.378967 
	C147.812210,483.373077 158.408630,488.117889 169.307327,493.075500 
	C179.076111,496.116425 188.542633,498.944519 198.009140,501.772614 
z"/>
<path fill="#F8F8F7" opacity="1.000000" stroke="none" 
	d="
M5.951543,228.988464 
	C5.634432,227.419052 5.040939,225.849823 5.039932,224.280197 
	C4.994150,152.970963 5.029198,81.661652 4.923367,10.352551 
	C4.917455,6.368500 5.779337,4.899772 10.109346,4.907621 
	C81.918205,5.037808 153.727371,4.997864 225.536469,5.019320 
	C226.842102,5.019710 228.147629,5.305442 229.423981,5.990122 
	C227.598816,6.817393 225.802872,7.112577 223.610474,7.346490 
	C214.142212,9.161877 205.070389,11.038534 195.598679,12.890826 
	C188.796021,14.828101 182.393280,16.789742 175.599213,18.776459 
	C163.106293,24.115543 151.004684,29.429550 138.553375,34.832451 
	C103.988426,52.906982 75.542984,77.678093 53.217602,109.107582 
	C44.506077,121.371590 37.731930,135.011795 29.815016,148.254013 
	C24.756598,161.322678 19.958515,174.162506 15.019367,187.363312 
	C13.229740,194.816376 11.581179,201.908432 9.835222,209.381195 
	C8.706769,216.131653 7.675708,222.501404 6.470422,228.894867 
	C6.296197,228.918594 5.951542,228.988464 5.951543,228.988464 
z"/>
<path fill="#F8F7F7" opacity="1.000000" stroke="none" 
	d="
M285.212158,508.162292 
	C297.960876,505.198120 311.165802,503.233154 323.983582,499.815979 
	C418.716614,474.560272 491.498444,392.685638 505.958771,295.535889 
	C506.497925,291.913544 506.997925,288.285339 507.714111,284.313660 
	C508.274719,285.678741 508.953247,287.389771 508.954498,289.101349 
	C509.007568,360.527405 508.967072,431.953583 509.083618,503.379486 
	C509.090454,507.560791 508.295258,509.116852 503.665527,509.106873 
	C432.406250,508.953491 361.146545,509.003021 289.886932,508.978699 
	C288.420929,508.978210 286.955017,508.659363 285.212158,508.162292 
z"/>
<path fill="#F27A78" opacity="1.000000" stroke="none" 
	d="
M7.674973,291.105347 
	C7.304658,289.250092 6.934344,287.394867 6.353467,285.256653 
	C5.813007,274.625916 5.483109,264.278137 5.588665,253.459961 
	C7.989801,251.852081 10.347366,251.090652 11.857793,249.516418 
	C21.933929,239.014633 31.783089,228.295593 41.794476,217.731003 
	C55.467682,203.302261 69.184959,188.914856 82.949150,174.572906 
	C93.531975,163.545868 104.282028,152.678772 114.817276,141.606903 
	C118.168983,138.084488 121.069481,134.132721 124.575165,130.459152 
	C129.927765,130.989243 134.240158,132.027512 132.548004,138.678024 
	C132.474564,138.966705 132.718323,139.321732 132.713348,139.644287 
	C132.561356,149.468124 132.396713,159.291763 131.918625,168.920044 
	C128.355652,165.056046 126.465652,168.025604 124.468163,170.217117 
	C118.576599,176.680923 112.860825,183.312515 106.799896,189.612579 
	C98.586426,198.150116 89.960068,206.291946 81.790665,214.870041 
	C67.175369,230.216476 52.782619,245.774689 38.270012,261.219147 
	C30.589695,269.392609 22.936050,277.594452 15.086753,285.603577 
	C12.959562,287.774048 10.163850,289.289337 7.674973,291.105347 
z"/>
<path fill="#EE7576" opacity="1.000000" stroke="none" 
	d="
M283.523621,6.122183 
	C289.815002,7.089172 295.646515,8.094361 301.764343,9.645584 
	C301.016205,11.645267 300.150665,13.264033 298.918518,14.524384 
	C293.157410,20.417313 287.146545,26.071455 281.498993,32.068985 
	C268.353851,46.028721 255.460892,60.227032 242.230789,74.104668 
	C239.746689,76.710335 238.546112,78.954788 239.556595,82.457176 
	C225.414474,82.577065 211.711060,82.533165 197.990784,82.144295 
	C196.234558,79.204742 195.292816,77.049469 198.195023,74.156143 
	C209.470261,62.915405 220.464584,51.392467 231.532959,39.945045 
	C233.484161,37.927040 235.223343,35.704082 237.173752,33.685261 
	C244.293167,26.316183 251.546326,19.073660 258.544434,11.592027 
	C260.125031,9.902216 260.880829,7.440884 262.016266,5.334692 
	C269.032104,5.609921 276.047974,5.885152 283.523621,6.122183 
z"/>
<path fill="#F47C78" opacity="1.000000" stroke="none" 
	d="
M261.554871,5.239331 
	C260.880829,7.440884 260.125031,9.902216 258.544434,11.592027 
	C251.546326,19.073660 244.293167,26.316183 237.173752,33.685261 
	C235.223343,35.704082 233.484161,37.927040 231.532959,39.945045 
	C220.464584,51.392467 209.470261,62.915405 198.195023,74.156143 
	C195.292816,77.049469 196.234558,79.204742 197.533539,82.257187 
	C184.406616,82.598473 171.720062,82.481880 159.021301,81.997986 
	C159.715820,79.211510 159.715332,76.140884 161.245270,74.480103 
	C170.410629,64.530853 179.922470,54.900528 189.329132,45.173908 
	C199.530548,34.625507 209.788239,24.130894 219.908081,13.504918 
	C221.572891,11.756843 222.655334,9.454138 224.006927,7.407762 
	C225.802872,7.112577 227.598816,6.817393 229.705017,6.304083 
	C240.374695,5.771960 250.734100,5.457963 261.554871,5.239331 
z"/>
<path fill="#F67E79" opacity="1.000000" stroke="none" 
	d="
M124.176445,130.377426 
	C121.069481,134.132721 118.168983,138.084488 114.817276,141.606903 
	C104.282028,152.678772 93.531975,163.545868 82.949150,174.572906 
	C69.184959,188.914856 55.467682,203.302261 41.794476,217.731003 
	C31.783089,228.295593 21.933929,239.014633 11.857793,249.516418 
	C10.347366,251.090652 7.989801,251.852081 5.678401,253.000412 
	C5.545800,245.310669 5.758916,237.610046 5.961787,229.448944 
	C5.951542,228.988464 6.296197,228.918594 6.867912,228.929718 
	C8.470754,228.539169 9.797145,228.419022 10.488797,227.693649 
	C21.184267,216.476471 31.772058,205.156784 42.435165,193.908600 
	C60.379612,174.979538 78.359764,156.084351 96.324898,137.174911 
	C97.012779,136.450867 97.657303,135.678925 98.395554,135.010513 
	C103.326172,130.546417 108.276787,126.104424 113.504913,121.841248 
	C117.251419,124.810638 120.713928,127.594032 124.176445,130.377426 
z"/>
<path fill="#F7F2F3" opacity="1.000000" stroke="none" 
	d="
M124.575165,130.459152 
	C120.713928,127.594032 117.251419,124.810638 113.406631,121.517532 
	C111.323845,117.672379 109.623329,114.336929 107.969452,110.550125 
	C107.558418,104.151154 108.801086,98.697968 112.060860,93.582298 
	C117.227005,85.474922 125.032845,82.906624 134.441666,82.577133 
	C142.940582,82.600868 150.987030,82.483086 159.033493,82.365295 
	C171.720062,82.481880 184.406616,82.598473 197.550415,82.602165 
	C211.711060,82.533165 225.414474,82.577065 240.003265,82.621773 
	C254.257584,82.508301 267.626495,82.394012 281.441559,82.439964 
	C294.922302,82.483353 307.956879,82.366493 321.436035,82.415482 
	C333.249634,82.472054 344.618713,82.362778 356.433289,82.416153 
	C366.252136,82.538811 375.625427,82.498833 385.366791,82.613251 
	C395.459198,84.836502 401.272308,91.297173 405.031799,100.465927 
	C406.051819,111.232155 404.711731,120.757362 395.112244,126.830482 
	C391.141907,129.342331 386.577026,130.914444 381.979523,133.055008 
	C381.979523,146.755463 381.979523,160.877182 381.891785,175.461060 
	C381.876801,188.282455 381.949554,200.641708 381.928223,213.458557 
	C381.834503,225.417419 381.179657,236.837326 377.375977,248.128479 
	C375.629974,251.861053 374.122650,255.361023 372.376343,259.088959 
	C366.720734,266.165894 361.515503,273.198425 355.796234,279.784546 
	C353.032867,282.966736 349.303284,285.309875 345.681244,288.060852 
	C344.471832,288.687836 343.592377,289.286896 342.422363,289.907379 
	C341.372711,290.487244 340.613617,291.045654 339.483887,291.678528 
	C336.967682,292.621155 334.889587,293.957764 332.665131,294.278015 
	C321.786469,295.844299 320.399078,302.687958 321.089691,312.182831 
	C322.002991,324.739258 321.559601,337.394379 321.548889,350.448975 
	C321.516449,356.274292 321.634491,361.657715 321.752502,367.041138 
	C321.603790,375.997803 321.370972,384.954742 321.400635,393.910828 
	C321.404877,395.194946 322.418030,396.734009 323.402557,397.715454 
	C330.920319,405.210175 334.060425,414.284637 333.611816,424.768768 
	C333.372253,430.367462 330.937836,433.019196 325.258026,433.055756 
	C309.959198,433.154266 294.659088,433.147675 279.360077,433.069977 
	C273.949310,433.042511 272.355011,431.144135 271.805054,423.971130 
	C271.333160,413.062561 274.695618,404.559235 282.027039,397.575226 
	C282.844147,396.796844 282.972260,395.295258 283.591736,393.760742 
	C283.671570,389.918121 283.579559,386.443787 283.599609,382.529175 
	C283.612152,379.069489 283.512634,376.050110 283.559265,372.597290 
	C283.630676,369.439423 283.555969,366.714966 283.614868,363.541565 
	C283.780853,342.621033 283.849396,322.149353 283.760193,301.678345 
	C283.754547,300.380280 282.844818,298.381622 281.807404,297.906860 
	C275.051880,294.815155 268.144714,292.054840 261.099854,288.919800 
	C258.506500,286.351776 256.260590,286.354370 253.490997,288.416412 
	C251.007355,290.265533 247.711716,291.050659 245.304657,292.970245 
	C240.936554,296.453735 232.753296,294.064606 231.177750,300.754822 
	C229.888382,306.229797 230.940247,312.256958 230.968262,318.039246 
	C230.969833,318.362244 231.099594,318.684692 231.073883,319.466980 
	C231.043365,332.621094 231.108627,345.315613 231.074951,358.469269 
	C231.037476,368.953583 231.098953,378.978760 231.058411,389.430237 
	C231.200424,392.289032 230.706894,395.153412 231.829956,397.071045 
	C234.915588,402.339813 238.679535,407.211365 242.188263,412.688171 
	C242.397141,416.405670 242.744247,419.674652 242.752289,422.944489 
	C242.763809,427.619812 240.925766,431.150360 235.609909,432.276733 
	C233.793503,432.292816 232.386017,432.442261 230.594482,432.456024 
	C229.147263,432.434784 228.084061,432.549225 226.623627,432.495361 
	C223.788193,432.466797 221.349991,432.606567 218.448425,432.707611 
	C206.410629,432.406555 194.836197,432.144196 183.085876,431.537628 
	C182.289215,429.684570 181.278732,428.217804 181.110336,426.660065 
	C179.942505,415.856262 182.709274,406.318420 190.405899,398.346497 
	C191.667984,397.039276 192.973114,395.071838 192.999985,393.389435 
	C193.156296,383.598389 192.936829,373.801331 192.935898,363.545074 
	C192.967026,348.391571 192.906616,333.699310 192.935150,318.545410 
	C193.056717,312.596649 193.259827,307.101501 193.001740,301.628082 
	C192.937424,300.264252 191.677429,298.276398 190.464996,297.764557 
	C185.117126,295.506897 179.585815,293.683746 173.953003,291.419067 
	C167.193512,286.088654 160.601959,281.042358 153.877960,275.687805 
	C149.896927,270.808563 146.048340,266.237549 142.187592,261.313416 
	C139.959839,255.583710 137.744278,250.207169 135.492874,244.415802 
	C134.363846,233.663589 133.270645,223.326202 132.245819,212.552063 
	C132.285141,202.107971 132.256073,192.100632 132.413940,181.866791 
	C132.475037,180.728195 132.349197,179.816101 132.267914,178.459473 
	C132.286316,175.048447 132.260178,172.081940 132.234039,169.115433 
	C132.396713,159.291763 132.561356,149.468124 132.713348,139.644287 
	C132.718323,139.321732 132.474564,138.966705 132.548004,138.678024 
	C134.240158,132.027512 129.927765,130.989243 124.575165,130.459152 
M264.156281,274.682983 
	C271.439026,278.068970 278.721771,281.454956 286.792572,285.073853 
	C301.995636,288.777435 316.818634,287.368195 330.793457,280.550598 
	C355.165588,268.660675 367.463074,248.632980 368.078674,221.704895 
	C368.435577,206.093475 367.834076,190.460144 367.964874,174.115860 
	C368.062408,161.166779 368.074524,148.216141 368.312653,135.269653 
	C368.378967,131.665421 366.319366,131.508484 363.827820,131.846680 
	C361.434570,132.171524 357.697510,130.152740 357.744751,135.178162 
	C357.882141,149.787079 357.946075,164.396683 357.855530,179.927963 
	C357.891205,193.947983 357.926880,207.967987 357.479431,222.548508 
	C357.418427,224.036484 357.357422,225.524445 357.026611,227.811172 
	C353.636963,250.818054 340.752167,266.059937 318.991272,273.770203 
	C308.378632,277.530457 297.472321,276.561676 286.204651,274.052673 
	C281.162903,271.627991 276.121155,269.203278 270.745178,266.211029 
	C268.731201,264.514832 266.701447,262.836914 264.706116,261.119080 
	C257.721008,255.105392 253.465881,247.238983 249.781921,238.225739 
	C248.932663,230.137436 247.645844,222.065796 247.337311,213.956924 
	C246.881699,201.983078 247.121902,189.982773 247.220184,177.067520 
	C247.220184,162.157532 247.220184,147.247543 247.220184,131.877106 
	C244.530548,131.877106 242.562302,131.987473 240.611389,131.850662 
	C237.837326,131.656128 236.758286,132.762543 236.787262,135.587799 
	C236.945953,151.060394 236.984268,166.534225 236.906998,182.933105 
	C236.960342,197.368378 236.669266,211.817276 237.239487,226.232101 
	C237.462158,231.860641 239.621338,237.412567 240.837280,243.758728 
	C245.313522,256.271698 252.771072,266.530579 264.156281,274.682983 
M206.402008,336.969360 
	C206.360764,351.622162 206.311707,366.274902 206.281113,380.927734 
	C206.262329,389.932739 206.275024,389.940308 215.183426,389.927734 
	C215.633194,389.927094 216.082504,389.606171 216.704910,389.368286 
	C216.704910,368.576904 216.704910,347.815430 216.950363,326.135254 
	C216.971344,318.660126 216.907349,311.183289 217.055862,303.710693 
	C217.113968,300.787018 215.851883,299.672760 213.174698,300.208862 
	C210.656525,300.713165 206.320892,298.194336 206.265350,303.253357 
	C206.145309,314.192291 206.492538,325.136353 206.402008,336.969360 
M283.134033,180.085220 
	C276.678772,180.058502 270.223450,180.041946 263.768280,180.001495 
	C259.404602,179.974136 260.465851,183.238068 260.369659,185.692154 
	C260.273346,188.148575 259.840363,190.964386 263.772522,190.863998 
	C270.209656,190.699631 276.647614,190.568069 283.979401,190.657562 
	C302.763062,190.718353 321.547852,190.683014 340.329468,190.912048 
	C344.663483,190.964874 344.222534,188.377304 344.088837,185.701035 
	C343.960205,183.126007 345.282867,179.876617 340.388794,179.944733 
	C321.612366,180.206116 302.832489,180.220230 283.134033,180.085220 
M184.111404,269.193787 
	C172.530579,260.933807 162.444336,251.497040 158.817078,236.226669 
	C158.161499,229.974136 157.062515,223.730576 156.935928,217.467361 
	C156.596405,200.669739 156.673126,183.863693 156.838333,166.141953 
	C156.867020,155.858948 156.788101,145.573975 156.977692,135.293930 
	C157.052887,131.217346 154.437836,131.647964 152.002884,131.902405 
	C149.603333,132.153137 145.887466,130.255859 145.941086,135.240723 
	C146.076553,147.838501 146.133438,160.437119 146.069336,173.956573 
	C146.069229,190.883347 145.771057,207.818237 146.232697,224.732407 
	C146.391586,230.553802 148.446182,236.323471 149.770798,242.860260 
	C154.750778,257.545685 163.608749,269.118683 177.466888,277.532837 
	C199.047272,291.506897 230.789566,288.885345 245.843140,276.564392 
	C243.499832,274.031403 241.173355,271.516602 239.362961,269.559692 
	C233.674728,271.544525 228.814987,273.736694 223.720947,274.921906 
	C210.093307,278.092621 197.048386,275.756592 184.111404,269.193787 
M306.924255,117.998230 
	C318.618347,117.955070 330.312408,117.911903 342.876709,118.066719 
	C345.254333,118.042679 347.631989,118.018639 350.647675,118.505707 
	C356.397339,118.598656 362.148804,118.821342 367.896088,118.742271 
	C372.258789,118.682228 376.616180,118.238083 381.744751,117.992264 
	C389.046814,116.850113 392.578583,112.892365 392.331116,106.129028 
	C392.111206,100.119255 387.644806,95.539841 380.897491,95.272430 
	C373.618378,94.983932 366.314453,95.321915 358.104858,95.156822 
	C346.409760,95.247452 334.714691,95.338081 322.103607,95.198242 
	C310.071869,95.273689 298.040161,95.349129 285.097198,95.197937 
	C270.408844,95.250755 255.720505,95.303574 240.114349,95.128334 
	C233.677292,95.416862 227.157455,95.171547 220.827805,96.152855 
	C215.161026,97.031403 211.762314,102.667152 212.511978,107.962242 
	C213.401260,114.243530 217.532547,117.768295 224.939331,118.000626 
	C240.296066,117.925522 255.652817,117.850426 271.927032,117.982094 
	C283.287323,117.918938 294.647644,117.855782 306.924255,117.998230 
M307.669556,307.365662 
	C307.721100,306.382172 307.725311,305.393555 307.832001,304.416077 
	C308.405701,299.160797 304.666870,300.332733 301.663300,300.127045 
	C298.545715,299.913544 296.634308,300.404877 296.920654,304.277374 
	C297.283264,309.181335 297.156677,314.121460 297.094818,319.966553 
	C297.094818,343.147583 297.094818,366.328644 297.094818,389.569580 
	C300.979858,389.569580 304.192047,389.569580 307.287933,389.569580 
	C307.287933,362.126831 307.287933,335.075775 307.669556,307.365662 
M165.135162,95.206360 
	C156.317474,95.177063 147.498749,95.060989 138.682678,95.166992 
	C135.719421,95.202606 132.658722,95.431107 129.825638,96.224861 
	C124.365089,97.754761 121.189690,103.064072 121.965019,108.563324 
	C122.703339,113.800087 127.034035,117.855789 132.559921,118.019226 
	C138.038010,118.181229 143.527390,117.960434 149.937988,118.054314 
	C166.841965,118.054314 183.745956,118.054314 200.133621,118.054314 
	C200.133621,110.270027 200.133621,103.027344 200.133621,95.476875 
	C189.173553,95.476875 177.611160,95.476875 165.135162,95.206360 
M203.082916,131.921829 
	C193.477005,131.904663 183.869568,131.979385 174.266083,131.817886 
	C171.125717,131.765076 169.831604,132.635696 169.909210,136.012115 
	C170.110901,144.785706 170.093948,153.569107 169.923813,162.343933 
	C169.862305,165.517395 171.152832,166.503860 174.043076,166.205307 
	C175.356369,166.069656 176.681931,166.052887 178.930222,166.125427 
	C192.211563,166.147568 205.493668,166.098938 218.773666,166.243835 
	C221.919937,166.278152 223.223831,165.432007 223.141785,162.036972 
	C222.929321,153.242844 222.975403,144.439514 223.091858,135.642166 
	C223.128098,132.904602 222.333023,131.702896 219.431122,131.830933 
	C214.295944,132.057495 209.149399,132.025864 203.082916,131.921829 
M296.927917,166.140823 
	C311.245392,166.179871 325.563110,166.183334 339.880066,166.289505 
	C342.578857,166.309525 344.280975,165.950150 344.212677,162.561813 
	C344.028168,153.408615 344.236725,144.246658 343.979126,135.096893 
	C343.947815,133.983887 342.055786,132.034729 340.963043,131.989288 
	C335.321716,131.754639 329.659821,132.013931 323.083649,131.905258 
	C313.651367,131.904739 304.217621,131.824936 294.788574,131.998917 
	C293.539581,132.021973 291.254456,133.313354 291.237885,134.057144 
	C291.003479,144.595261 291.078308,155.140259 291.078308,165.981567 
	C293.112976,165.981567 294.557373,165.981567 296.927917,166.140823 
M176.937943,243.735855 
	C181.392349,248.103271 185.249542,253.431732 190.420959,256.645355 
	C202.547653,264.181091 215.668549,264.893707 228.815964,258.929077 
	C229.911179,258.432220 231.223694,255.816422 230.813568,254.985962 
	C223.837051,240.858810 222.547791,225.810699 222.974426,210.403687 
	C223.147400,204.157394 222.660812,203.880173 215.113785,204.184189 
	C201.455383,204.147232 187.796494,204.163330 174.138992,204.031769 
	C171.146332,204.002945 169.892136,205.051880 169.999268,208.098801 
	C170.151352,212.424728 169.708801,216.792816 170.128448,221.083405 
	C170.884155,228.809921 171.712814,236.609192 176.937943,243.735855 
M325.116394,204.202332 
	C315.355865,204.174438 305.592041,204.284286 295.836517,204.048676 
	C292.101593,203.958466 291.118683,205.277542 291.012329,208.910141 
	C290.727966,218.623947 289.957977,228.323532 289.095184,238.790939 
	C287.363892,243.962006 285.918549,249.254959 283.786926,254.255371 
	C282.631897,256.964844 283.055725,257.957520 285.569366,259.175781 
	C304.578491,268.388489 329.905212,259.420929 339.447998,240.542145 
	C345.010590,229.537415 343.970398,217.976700 343.916595,206.424896 
	C343.912933,205.637360 342.001373,204.208954 340.953583,204.186691 
	C335.978333,204.080948 330.994934,204.359558 325.116394,204.202332 
M223.054337,184.500763 
	C223.581635,181.045364 222.207260,179.890381 218.647018,179.933685 
	C204.006470,180.111862 189.359283,180.175262 174.721695,179.900085 
	C170.387390,179.818604 169.879349,181.620605 169.912628,185.207291 
	C169.946854,188.898804 170.356384,191.052628 174.993515,190.962875 
	C189.298157,190.685959 203.614594,190.687698 217.919510,190.953720 
	C222.330154,191.035736 223.588516,189.354019 223.054337,184.500763 
M315.082062,408.429413 
	C309.284882,402.987671 302.482635,401.643127 295.323120,404.713654 
	C289.157257,407.358063 285.636902,412.365906 285.430054,419.682983 
	C296.873016,419.682983 308.022186,419.682983 320.719849,419.682983 
	C318.736511,415.517517 317.172485,412.232727 315.082062,408.429413 
M197.781937,410.380554 
	C196.950699,411.990021 196.083893,413.582275 195.295700,415.212555 
	C193.710068,418.492218 194.433914,420.209290 198.411942,420.068298 
	C202.549316,419.921692 206.695618,420.024506 210.838013,420.022827 
	C216.738663,420.020447 222.639297,420.022247 228.508209,420.022247 
	C228.547989,412.870361 224.911865,407.091339 219.343979,404.699646 
	C211.951782,401.524292 204.347290,403.354370 197.781937,410.380554 
M266.101318,227.541290 
	C265.875519,229.521301 265.927582,231.583054 265.373535,233.466507 
	C263.460846,239.968430 267.271423,243.984909 271.343933,248.640442 
	C272.296967,246.838028 273.095703,245.614716 273.623718,244.283951 
	C278.414398,232.209503 278.068542,219.522827 277.697876,206.906830 
	C277.564270,202.358612 273.448334,204.507675 270.997345,204.125244 
	C268.344543,203.711334 267.080811,204.885757 267.012939,207.748917 
	C266.863678,214.044403 266.449677,220.333603 266.101318,227.541290 
M268.540253,166.095444 
	C270.030365,166.164673 271.554382,166.058090 273.004028,166.337326 
	C276.779388,167.064575 278.054596,165.596603 277.961670,161.823837 
	C277.749237,153.200836 277.915527,144.568970 277.768219,135.943436 
	C277.746368,134.662628 277.217621,132.724304 276.308624,132.236984 
	C271.711639,129.772598 267.161743,132.512177 267.062286,137.548843 
	C267.019745,139.705215 266.926910,141.864441 266.991333,144.018356 
	C267.207611,151.250748 267.484406,158.481339 268.540253,166.095444 
z"/>
<path fill="#BB3961" opacity="1.000000" stroke="none" 
	d="
M322.076355,367.025208 
	C321.634491,361.657715 321.516449,356.274292 321.863892,350.271454 
	C322.553284,345.101349 322.777252,340.550690 323.336853,335.952148 
	C331.600708,327.948181 339.645721,320.104431 347.429443,312.009430 
	C358.745697,300.240570 369.868225,288.285492 381.083282,276.419281 
	C392.810059,264.011627 404.549194,251.615692 416.279449,239.211334 
	C416.735474,238.729126 417.141541,238.199860 417.594269,237.714325 
	C425.849640,228.860306 434.005005,219.910004 442.397034,211.187424 
	C450.170258,203.108002 458.319611,195.389938 466.074280,187.293350 
	C472.374634,180.715195 478.254730,173.735825 484.501404,167.104111 
	C486.159058,165.344254 488.480438,164.209564 490.497070,162.787842 
	C493.141602,170.204407 495.786133,177.620972 498.475891,185.431381 
	C493.866852,189.902664 488.925751,193.700409 484.619629,198.117249 
	C476.296387,206.654556 468.455933,215.660950 460.189240,224.255432 
	C446.619110,238.363708 432.800354,252.232697 419.213837,266.325378 
	C406.068878,279.960022 393.086548,293.751465 380.029388,307.470795 
	C366.795654,321.375580 353.529419,335.249634 340.335876,349.192444 
	C335.143494,354.679718 330.136658,360.342377 324.966125,365.850800 
	C324.372803,366.482910 323.267914,366.634796 322.076355,367.025208 
z"/>
<path fill="#BB3962" opacity="1.000000" stroke="none" 
	d="
M283.419922,394.129028 
	C282.972260,395.295258 282.844147,396.796844 282.027039,397.575226 
	C274.695618,404.559235 271.333160,413.062561 271.676697,423.578308 
	C269.166840,425.390869 266.300629,426.296814 264.494202,428.205688 
	C255.459442,437.752411 246.758560,447.613953 237.825104,457.258087 
	C233.130905,462.325775 228.175064,467.150177 223.382904,472.128265 
	C215.903778,479.897583 208.400070,487.645386 201.062454,495.546844 
	C199.676056,497.039795 199.015381,499.206635 198.014496,501.417603 
	C188.542633,498.944519 179.076111,496.116425 169.312088,492.718201 
	C169.481873,491.128723 169.723801,489.897736 170.451447,489.122803 
	C177.410080,481.712280 184.492447,474.417938 191.457794,467.013580 
	C200.720505,457.166992 209.928162,447.268341 219.101852,437.338837 
	C219.947632,436.423340 220.377563,435.123688 221.390259,434.001312 
	C223.526901,433.554688 225.273880,433.109192 227.020859,432.663696 
	C228.084061,432.549225 229.147263,432.434784 230.705566,432.756592 
	C232.806717,432.931915 234.412766,432.670990 236.018814,432.410065 
	C240.925766,431.150360 242.763809,427.619812 242.752289,422.944489 
	C242.744247,419.674652 242.397141,416.405670 242.577652,412.571289 
	C243.236969,411.837646 243.576385,411.722534 243.795166,411.492645 
	C255.281555,399.423218 266.711060,387.298828 278.304626,375.333405 
	C279.512756,374.086548 281.687073,373.775818 283.413086,373.030762 
	C283.512634,376.050110 283.612152,379.069489 283.251160,382.665527 
	C283.000397,386.871185 283.210175,390.500092 283.419922,394.129028 
z"/>
<path fill="#BE3C62" opacity="1.000000" stroke="none" 
	d="
M490.424103,162.421524 
	C488.480438,164.209564 486.159058,165.344254 484.501404,167.104111 
	C478.254730,173.735825 472.374634,180.715195 466.074280,187.293350 
	C458.319611,195.389938 450.170258,203.108002 442.397034,211.187424 
	C434.005005,219.910004 425.849640,228.860306 417.594269,237.714325 
	C417.141541,238.199860 416.735474,238.729126 416.279449,239.211334 
	C404.549194,251.615692 392.810059,264.011627 381.083282,276.419281 
	C369.868225,288.285492 358.745697,300.240570 347.429443,312.009430 
	C339.645721,320.104431 331.600708,327.948181 323.336182,335.483459 
	C322.999908,333.565552 323.213623,332.032196 322.966705,330.576965 
	C320.676056,317.076202 324.912445,306.374298 336.065643,298.218506 
	C337.939087,296.848511 338.621704,293.850037 339.854523,291.604034 
	C340.613617,291.045654 341.372711,290.487244 342.798706,289.939270 
	C344.314178,289.310822 345.162689,288.671875 346.011200,288.032959 
	C349.303284,285.309875 353.032867,282.966736 355.796234,279.784546 
	C361.515503,273.198425 366.720734,266.165894 372.751312,259.099060 
	C378.027740,254.037003 382.661224,249.164474 387.359894,244.355621 
	C393.595154,237.974121 399.992950,231.747665 406.114075,225.259445 
	C412.241821,218.764221 418.022919,211.942673 424.123108,205.420517 
	C431.685028,197.335526 439.403748,189.396744 447.084229,181.423248 
	C451.636993,176.696854 456.220459,171.999344 460.836884,167.335175 
	C467.920807,160.177963 475.045074,153.060669 482.152222,145.926453 
	C484.885193,151.302689 487.618164,156.678955 490.424103,162.421524 
z"/>
<path fill="#C64666" opacity="1.000000" stroke="none" 
	d="
M382.022339,213.000946 
	C381.949554,200.641708 381.876801,188.282455 382.258728,175.459106 
	C386.916504,171.357132 391.447876,168.031769 395.262512,164.024155 
	C407.856018,150.793518 420.158478,137.286346 432.636749,123.945267 
	C439.848297,116.235077 447.182861,108.640015 454.462036,100.993134 
	C459.971191,108.683289 465.480377,116.373436 470.870667,124.697113 
	C469.244446,126.310799 467.502655,127.059792 466.269562,128.310333 
	C460.333313,134.330704 454.504089,140.457809 448.692810,146.599930 
	C436.399261,159.593323 424.159027,172.637161 411.860687,185.626007 
	C404.201019,193.715698 396.581116,201.849030 388.693176,209.711761 
	C387.029633,211.370010 384.274475,211.933182 382.022339,213.000946 
z"/>
<path fill="#E86E73" opacity="1.000000" stroke="none" 
	d="
M280.995392,82.279716 
	C267.626495,82.394012 254.257584,82.508301 240.441986,82.457993 
	C238.546112,78.954788 239.746689,76.710335 242.230789,74.104668 
	C255.460892,60.227032 268.353851,46.028721 281.498993,32.068985 
	C287.146545,26.071455 293.157410,20.417313 298.918518,14.524384 
	C300.150665,13.264033 301.016205,11.645267 302.106018,9.796932 
	C313.960724,12.360581 325.760040,15.318913 337.695312,18.828938 
	C333.209839,24.098042 328.576630,28.803986 323.969299,33.535110 
	C312.056244,45.768261 299.993866,57.862762 288.355164,70.351883 
	C285.231842,73.703400 283.413055,78.270592 280.995392,82.279716 
z"/>
<path fill="#CC4F69" opacity="1.000000" stroke="none" 
	d="
M454.369720,100.712097 
	C447.182861,108.640015 439.848297,116.235077 432.636749,123.945267 
	C420.158478,137.286346 407.856018,150.793518 395.262512,164.024155 
	C391.447876,168.031769 386.916504,171.357132 382.346497,174.996948 
	C381.979523,160.877182 381.979523,146.755463 381.979523,133.055008 
	C386.577026,130.914444 391.141907,129.342331 395.112244,126.830482 
	C404.711731,120.757362 406.051819,111.232155 405.393280,100.462944 
	C407.600098,98.437248 409.544586,97.021790 411.153992,95.294182 
	C417.578796,88.397491 423.899384,81.403709 430.258545,74.445862 
	C438.264801,83.107590 446.271118,91.769318 454.369720,100.712097 
z"/>
<path fill="#C24164" opacity="1.000000" stroke="none" 
	d="
M381.928223,213.458557 
	C384.274475,211.933182 387.029633,211.370010 388.693176,209.711761 
	C396.581116,201.849030 404.201019,193.715698 411.860687,185.626007 
	C424.159027,172.637161 436.399261,159.593323 448.692810,146.599930 
	C454.504089,140.457809 460.333313,134.330704 466.269562,128.310333 
	C467.502655,127.059792 469.244446,126.310799 470.946259,125.027603 
	C474.421295,130.574753 477.701874,136.424942 480.604858,142.695831 
	C472.137146,151.582336 464.063599,160.064041 455.952515,168.509735 
	C446.768005,178.073074 437.474457,187.532745 428.363312,197.165207 
	C413.008545,213.398468 397.793030,229.763596 382.396759,245.957092 
	C381.317230,247.092514 379.232147,247.271912 377.614685,247.895874 
	C381.179657,236.837326 381.834503,225.417419 381.928223,213.458557 
z"/>
<path fill="#E26771" opacity="1.000000" stroke="none" 
	d="
M281.441559,82.439964 
	C283.413055,78.270592 285.231842,73.703400 288.355164,70.351883 
	C299.993866,57.862762 312.056244,45.768261 323.969299,33.535110 
	C328.576630,28.803986 333.209839,24.098042 337.979370,19.049892 
	C347.698792,22.573421 357.270111,26.427687 366.765686,30.696777 
	C352.184967,45.858624 337.610352,60.538689 323.278656,75.452194 
	C321.780609,77.011047 321.719360,79.950653 320.991455,82.249634 
	C307.956879,82.366493 294.922302,82.483353 281.441559,82.439964 
z"/>
<path fill="#DC616F" opacity="1.000000" stroke="none" 
	d="
M321.436035,82.415482 
	C321.719360,79.950653 321.780609,77.011047 323.278656,75.452194 
	C337.610352,60.538689 352.184967,45.858624 367.018463,30.948372 
	C374.467224,34.598488 381.587402,38.411839 388.764557,42.813793 
	C379.945251,52.704269 370.888885,61.844234 362.297546,71.402199 
	C359.559296,74.448555 358.056091,78.605019 355.987793,82.253510 
	C344.618713,82.362778 333.249634,82.472054 321.436035,82.415482 
z"/>
<path fill="#D85C6D" opacity="1.000000" stroke="none" 
	d="
M356.433289,82.416153 
	C358.056091,78.605019 359.559296,74.448555 362.297546,71.402199 
	C370.888885,61.844234 379.945251,52.704269 388.967987,43.078548 
	C395.333038,46.890911 401.551575,51.027119 407.799408,55.768600 
	C400.616699,64.024185 393.378540,71.650223 386.233826,79.362816 
	C385.529175,80.123444 385.396759,81.414177 384.998779,82.458862 
	C375.625427,82.498833 366.252136,82.538811 356.433289,82.416153 
z"/>
<path fill="#D4586C" opacity="1.000000" stroke="none" 
	d="
M385.366821,82.613251 
	C385.396759,81.414177 385.529175,80.123444 386.233826,79.362816 
	C393.378540,71.650223 400.616699,64.024185 407.980377,56.044868 
	C415.406525,61.778530 422.680969,67.841194 430.106964,74.174866 
	C423.899384,81.403709 417.578796,88.397491 411.153992,95.294182 
	C409.544586,97.021790 407.600098,98.437248 405.448120,99.999161 
	C401.272308,91.297173 395.459198,84.836502 385.366821,82.613251 
z"/>
<path fill="#C14467" opacity="1.000000" stroke="none" 
	d="
M377.375977,248.128479 
	C379.232147,247.271912 381.317230,247.092514 382.396759,245.957092 
	C397.793030,229.763596 413.008545,213.398468 428.363312,197.165207 
	C437.474457,187.532745 446.768005,178.073074 455.952515,168.509735 
	C464.063599,160.064041 472.137146,151.582336 480.553833,143.058746 
	C481.274872,143.758881 481.669281,144.516785 482.107971,145.600586 
	C475.045074,153.060669 467.920807,160.177963 460.836884,167.335175 
	C456.220459,171.999344 451.636993,176.696854 447.084229,181.423248 
	C439.403748,189.396744 431.685028,197.335526 424.123108,205.420517 
	C418.022919,211.942673 412.241821,218.764221 406.114075,225.259445 
	C399.992950,231.747665 393.595154,237.974121 387.359894,244.355621 
	C382.661224,249.164474 378.027740,254.037003 372.990326,258.871094 
	C374.122650,255.361023 375.629974,251.861053 377.375977,248.128479 
z"/>
<path fill="#EC7275" opacity="1.000000" stroke="none" 
	d="
M131.918640,168.920044 
	C132.260178,172.081940 132.286316,175.048447 131.974457,178.644302 
	C131.833313,180.213531 132.030167,181.153427 132.227005,182.093307 
	C132.256073,192.100632 132.285141,202.107971 131.829071,212.556091 
	C129.399460,213.662155 126.998070,213.821304 125.595825,215.087189 
	C121.321045,218.946304 117.357391,223.162506 113.407738,227.366638 
	C105.984009,235.268600 98.702347,243.304077 91.273148,251.200806 
	C83.899132,259.038910 76.352951,266.715302 68.999008,274.571899 
	C61.756256,282.309723 54.791401,290.310486 47.462585,297.964142 
	C40.056541,305.698486 32.379971,313.175232 24.767117,320.709442 
	C21.870100,323.576538 18.820616,326.289581 15.840619,329.072815 
	C13.121960,316.708954 10.403300,304.345093 7.679807,291.543274 
	C10.163850,289.289337 12.959562,287.774048 15.086753,285.603577 
	C22.936050,277.594452 30.589695,269.392609 38.270012,261.219147 
	C52.782619,245.774689 67.175369,230.216476 81.790665,214.870041 
	C89.960068,206.291946 98.586426,198.150116 106.799896,189.612579 
	C112.860825,183.312515 118.576599,176.680923 124.468163,170.217117 
	C126.465652,168.025604 128.355652,165.056046 131.918640,168.920044 
z"/>
<path fill="#D4586C" opacity="1.000000" stroke="none" 
	d="
M174.120941,291.703217 
	C179.585815,293.683746 185.117126,295.506897 190.464996,297.764557 
	C191.677429,298.276398 192.937424,300.264252 193.001740,301.628082 
	C193.259827,307.101501 193.056717,312.596649 192.578339,318.550598 
	C191.370850,319.284729 190.380997,319.333313 189.882584,319.853119 
	C184.743942,325.212128 179.667984,330.631714 174.606796,336.064392 
	C162.000717,349.595856 149.522858,363.248901 136.783066,376.653107 
	C124.760506,389.302612 112.460793,401.688568 100.309517,414.216187 
	C99.046944,415.517822 98.070709,417.102325 96.779701,418.370392 
	C91.024628,424.023102 85.203453,429.608521 79.406158,435.218262 
	C72.914955,428.152161 66.423737,421.086090 60.026295,413.356567 
	C63.434307,409.255341 66.794777,405.860748 70.054756,402.372314 
	C83.515892,387.967590 96.886963,373.478210 110.409462,359.131500 
	C119.405724,349.586853 128.629898,340.257416 137.695267,330.777313 
	C141.330139,326.976166 144.803192,323.020599 148.367188,319.151215 
	C152.415756,314.755798 156.459412,310.355408 160.549667,305.998962 
	C165.047012,301.208893 169.595016,296.466431 174.120941,291.703217 
z"/>
<path fill="#DA5F6E" opacity="1.000000" stroke="none" 
	d="
M173.953003,291.419067 
	C169.595016,296.466431 165.047012,301.208893 160.549667,305.998962 
	C156.459412,310.355408 152.415756,314.755798 148.367188,319.151215 
	C144.803192,323.020599 141.330139,326.976166 137.695267,330.777313 
	C128.629898,340.257416 119.405724,349.586853 110.409462,359.131500 
	C96.886963,373.478210 83.515892,387.967590 70.054756,402.372314 
	C66.794777,405.860748 63.434307,409.255341 59.964928,413.027222 
	C54.183613,405.492767 48.557426,397.624207 43.195419,389.359772 
	C57.751179,374.036224 72.059074,359.124146 86.330460,344.177216 
	C106.933609,322.598816 127.481216,300.967194 148.158142,279.459839 
	C149.671982,277.885193 152.039673,277.131409 154.010406,275.996033 
	C160.601959,281.042358 167.193512,286.088654 173.953003,291.419067 
z"/>
<path fill="#CE5069" opacity="1.000000" stroke="none" 
	d="
M79.571777,435.529083 
	C85.203453,429.608521 91.024628,424.023102 96.779701,418.370392 
	C98.070709,417.102325 99.046944,415.517822 100.309517,414.216187 
	C112.460793,401.688568 124.760506,389.302612 136.783066,376.653107 
	C149.522858,363.248901 162.000717,349.595856 174.606796,336.064392 
	C179.667984,330.631714 184.743942,325.212128 189.882584,319.853119 
	C190.380997,319.333313 191.370850,319.284729 192.489395,319.012238 
	C192.906616,333.699310 192.967026,348.391571 192.570099,363.545715 
	C190.781647,364.780334 189.218063,365.317932 188.158646,366.365417 
	C182.855957,371.608429 177.662903,376.963318 172.474030,382.320251 
	C165.919586,389.087006 159.329193,395.821564 152.896851,402.703247 
	C146.327789,409.731140 140.024368,417.007782 133.437820,424.018799 
	C123.346703,434.760101 113.112602,445.367065 102.939209,456.031097 
	C95.205269,449.300690 87.471336,442.570312 79.571777,435.529083 
z"/>
<path fill="#E56B72" opacity="1.000000" stroke="none" 
	d="
M15.876240,329.450989 
	C18.820616,326.289581 21.870100,323.576538 24.767117,320.709442 
	C32.379971,313.175232 40.056541,305.698486 47.462585,297.964142 
	C54.791401,290.310486 61.756256,282.309723 68.999008,274.571899 
	C76.352951,266.715302 83.899132,259.038910 91.273148,251.200806 
	C98.702347,243.304077 105.984009,235.268600 113.407738,227.366638 
	C117.357391,223.162506 121.321045,218.946304 125.595825,215.087189 
	C126.998070,213.821304 129.399460,213.662155 131.760696,212.992859 
	C133.270645,223.326202 134.363846,233.663589 135.100250,244.478012 
	C133.292892,246.006088 131.652191,246.873108 130.425476,248.140762 
	C125.699059,253.024933 121.182434,258.112518 116.443283,262.983887 
	C109.555367,270.063934 102.409164,276.895905 95.611855,284.060211 
	C82.837524,297.524261 70.259972,311.174744 57.549786,324.699921 
	C49.752457,332.997192 41.942856,341.286438 33.962666,349.406250 
	C31.474627,351.937836 28.410826,353.903564 25.610594,356.128326 
	C22.377684,347.361938 19.144773,338.595581 15.876240,329.450989 
z"/>
<path fill="#C74967" opacity="1.000000" stroke="none" 
	d="
M103.124496,456.310394 
	C113.112602,445.367065 123.346703,434.760101 133.437820,424.018799 
	C140.024368,417.007782 146.327789,409.731140 152.896851,402.703247 
	C159.329193,395.821564 165.919586,389.087006 172.474030,382.320251 
	C177.662903,376.963318 182.855957,371.608429 188.158646,366.365417 
	C189.218063,365.317932 190.781647,364.780334 192.478561,364.006958 
	C192.936829,373.801331 193.156296,383.598389 192.999985,393.389435 
	C192.973114,395.071838 191.667984,397.039276 190.405899,398.346497 
	C182.709274,406.318420 179.942505,415.856262 181.110336,426.660065 
	C181.278732,428.217804 182.289215,429.684570 182.682709,431.577820 
	C180.499023,432.982056 178.134567,433.599152 176.659180,435.093811 
	C171.228409,440.595673 166.096619,446.392365 160.844482,452.070862 
	C152.807388,460.760315 144.763718,469.443695 136.722839,478.129700 
	C125.585167,470.949707 114.447479,463.769684 103.124496,456.310394 
z"/>
<path fill="#DE6370" opacity="1.000000" stroke="none" 
	d="
M153.877960,275.687805 
	C152.039673,277.131409 149.671982,277.885193 148.158142,279.459839 
	C127.481216,300.967194 106.933609,322.598816 86.330460,344.177216 
	C72.059074,359.124146 57.751179,374.036224 43.103432,389.018799 
	C39.779305,383.995148 36.811340,378.916626 34.098488,373.339661 
	C41.578777,365.394684 48.838085,357.980865 56.013958,350.487122 
	C59.334351,347.019623 62.388821,343.295319 65.745399,339.865112 
	C72.367439,333.097839 79.172066,326.509125 85.788879,319.736816 
	C89.143364,316.303497 92.150536,312.531464 95.494400,309.086975 
	C103.522964,300.816742 111.657631,292.649506 119.749542,284.440765 
	C127.232903,276.849304 134.716354,269.257965 142.199768,261.666565 
	C146.048340,266.237549 149.896927,270.808563 153.877960,275.687805 
z"/>
<path fill="#E16671" opacity="1.000000" stroke="none" 
	d="
M142.187592,261.313416 
	C134.716354,269.257965 127.232903,276.849304 119.749542,284.440765 
	C111.657631,292.649506 103.522964,300.816742 95.494400,309.086975 
	C92.150536,312.531464 89.143364,316.303497 85.788879,319.736816 
	C79.172066,326.509125 72.367439,333.097839 65.745399,339.865112 
	C62.388821,343.295319 59.334351,347.019623 56.013958,350.487122 
	C48.838085,357.980865 41.578777,365.394684 34.020569,372.984619 
	C31.055965,367.701721 28.424398,362.275421 25.701710,356.488708 
	C28.410826,353.903564 31.474627,351.937836 33.962666,349.406250 
	C41.942856,341.286438 49.752457,332.997192 57.549786,324.699921 
	C70.259972,311.174744 82.837524,297.524261 95.611855,284.060211 
	C102.409164,276.895905 109.555367,270.063934 116.443283,262.983887 
	C121.182434,258.112518 125.699059,253.024933 130.425476,248.140762 
	C131.652191,246.873108 133.292892,246.006088 135.136078,244.892853 
	C137.744278,250.207169 139.959839,255.583710 142.187592,261.313416 
z"/>
<path fill="#BF3F63" opacity="1.000000" stroke="none" 
	d="
M136.969330,478.378967 
	C144.763718,469.443695 152.807388,460.760315 160.844482,452.070862 
	C166.096619,446.392365 171.228409,440.595673 176.659180,435.093811 
	C178.134567,433.599152 180.499023,432.982056 182.858597,431.921997 
	C194.836197,432.144196 206.410629,432.406555 218.604309,432.996460 
	C219.815918,433.550171 220.408264,433.776306 221.000610,434.002441 
	C220.377563,435.123688 219.947632,436.423340 219.101852,437.338837 
	C209.928162,447.268341 200.720505,457.166992 191.457794,467.013580 
	C184.492447,474.417938 177.410080,481.712280 170.451447,489.122803 
	C169.723801,489.897736 169.481873,491.128723 169.009811,492.505371 
	C158.408630,488.117889 147.812210,483.373077 136.969330,478.378967 
z"/>
<path fill="#FC857B" opacity="1.000000" stroke="none" 
	d="
M138.903076,34.743553 
	C151.004684,29.429550 163.106293,24.115543 175.599365,19.169188 
	C175.680374,20.451368 175.628830,21.618837 175.020081,22.241913 
	C167.645645,29.789869 160.136078,37.205894 152.767548,44.759518 
	C144.032822,53.713669 135.306366,62.679413 126.747177,71.800476 
	C114.100456,85.277428 101.764465,99.048607 89.002083,112.413681 
	C74.396378,127.709122 59.387497,142.618881 44.712433,157.849075 
	C36.256649,166.624710 28.164011,175.749588 19.772467,184.588669 
	C18.641966,185.779465 16.717339,186.216339 15.160432,187.002319 
	C19.958515,174.162506 24.756598,161.322678 30.174240,148.241806 
	C31.698914,147.651871 32.842129,147.543381 33.473457,146.918091 
	C43.083210,137.400146 52.817608,127.996696 62.132702,118.195663 
	C72.267601,107.532028 81.853134,96.347542 91.939842,85.636551 
	C106.935638,69.712646 122.175385,54.018604 137.251114,38.169483 
	C138.082962,37.294971 138.365082,35.897568 138.903076,34.743553 
z"/>
<path fill="#FA827A" opacity="1.000000" stroke="none" 
	d="
M15.019367,187.363312 
	C16.717339,186.216339 18.641966,185.779465 19.772467,184.588669 
	C28.164011,175.749588 36.256649,166.624710 44.712433,157.849075 
	C59.387497,142.618881 74.396378,127.709122 89.002083,112.413681 
	C101.764465,99.048607 114.100456,85.277428 126.747177,71.800476 
	C135.306366,62.679413 144.032822,53.713669 152.767548,44.759518 
	C160.136078,37.205894 167.645645,29.789869 175.020081,22.241913 
	C175.628830,21.618837 175.680374,20.451368 175.990662,19.144112 
	C182.393280,16.789742 188.796021,14.828101 195.567291,13.249343 
	C195.420456,14.460700 195.035370,15.416892 194.368637,16.096958 
	C190.000061,20.552715 185.465439,24.849489 181.183136,29.385199 
	C172.486435,38.596489 163.944977,47.954140 155.282776,57.198273 
	C148.872955,64.038689 142.305573,70.732971 135.978256,77.647797 
	C134.881287,78.846642 134.630722,80.820000 133.989197,82.435616 
	C125.032845,82.906624 117.227005,85.474922 112.060860,93.582298 
	C108.801086,98.697968 107.558418,104.151154 107.610664,110.554169 
	C105.706993,111.936241 103.952217,112.612167 102.756920,113.834984 
	C98.588814,118.099007 94.687302,122.622520 90.551865,126.919807 
	C79.895073,137.993744 69.153709,148.986252 58.481712,160.045624 
	C56.767586,161.821976 55.318092,163.853378 53.607376,165.633392 
	C44.699951,174.901703 35.851311,184.230331 26.771803,193.327988 
	C21.358793,198.751816 15.558699,203.789322 9.932617,209.000504 
	C11.581179,201.908432 13.229740,194.816376 15.019367,187.363312 
z"/>
<path fill="#F8817A" opacity="1.000000" stroke="none" 
	d="
M9.835224,209.381195 
	C15.558699,203.789322 21.358793,198.751816 26.771803,193.327988 
	C35.851311,184.230331 44.699951,174.901703 53.607376,165.633392 
	C55.318092,163.853378 56.767586,161.821976 58.481712,160.045624 
	C69.153709,148.986252 79.895073,137.993744 90.551865,126.919807 
	C94.687302,122.622520 98.588814,118.099007 102.756920,113.834984 
	C103.952217,112.612167 105.706993,111.936241 107.564026,111.005524 
	C109.623329,114.336929 111.323845,117.672379 113.122635,121.331535 
	C108.276787,126.104424 103.326172,130.546417 98.395554,135.010513 
	C97.657303,135.678925 97.012779,136.450867 96.324898,137.174911 
	C78.359764,156.084351 60.379612,174.979538 42.435165,193.908600 
	C31.772058,205.156784 21.184267,216.476471 10.488797,227.693649 
	C9.797145,228.419022 8.470754,228.539169 7.042138,228.906006 
	C7.675708,222.501404 8.706769,216.131653 9.835224,209.381195 
z"/>
<path fill="#F8817A" opacity="1.000000" stroke="none" 
	d="
M134.441650,82.577133 
	C134.630722,80.820000 134.881287,78.846642 135.978256,77.647797 
	C142.305573,70.732971 148.872955,64.038689 155.282776,57.198273 
	C163.944977,47.954140 172.486435,38.596489 181.183136,29.385199 
	C185.465439,24.849489 190.000061,20.552715 194.368637,16.096958 
	C195.035370,15.416892 195.420456,14.460700 195.967194,13.273708 
	C205.070389,11.038534 214.142212,9.161877 223.610474,7.346490 
	C222.655334,9.454138 221.572891,11.756843 219.908081,13.504918 
	C209.788239,24.130894 199.530548,34.625507 189.329132,45.173908 
	C179.922470,54.900528 170.410629,64.530853 161.245270,74.480103 
	C159.715332,76.140884 159.715820,79.211510 159.021301,81.997986 
	C150.987030,82.483086 142.940582,82.600868 134.441650,82.577133 
z"/>
<path fill="#FE887D" opacity="1.000000" stroke="none" 
	d="
M138.553375,34.832447 
	C138.365082,35.897568 138.082962,37.294971 137.251114,38.169483 
	C122.175385,54.018604 106.935638,69.712646 91.939842,85.636551 
	C81.853134,96.347542 72.267601,107.532028 62.132702,118.195663 
	C52.817608,127.996696 43.083210,137.400146 33.473457,146.918091 
	C32.842129,147.543381 31.698914,147.651871 30.434574,148.012955 
	C37.731930,135.011795 44.506077,121.371590 53.217602,109.107582 
	C75.542984,77.678093 103.988426,52.906982 138.553375,34.832447 
z"/>
<path fill="#CA4D69" opacity="1.000000" stroke="none" 
	d="
M326.014435,204.501328 
	C330.994934,204.359558 335.978333,204.080948 340.953583,204.186691 
	C342.001373,204.208954 343.912933,205.637360 343.916595,206.424896 
	C343.970398,217.976700 345.010590,229.537415 339.447998,240.542145 
	C329.905212,259.420929 304.578491,268.388489 285.569366,259.175781 
	C283.055725,257.957520 282.631897,256.964844 283.786926,254.255371 
	C285.918549,249.254959 287.363892,243.962006 289.580658,238.395660 
	C292.778168,235.536591 295.639893,233.216660 298.172852,230.580811 
	C304.569092,223.924759 310.661774,216.969955 317.204926,210.465698 
	C319.675964,208.009323 323.051331,206.462677 326.014435,204.501328 
z"/>
<path fill="#DA5F6E" opacity="1.000000" stroke="none" 
	d="
M216.020142,204.458160 
	C222.660812,203.880173 223.147400,204.157394 222.974426,210.403687 
	C222.547791,225.810699 223.837051,240.858810 230.813568,254.985962 
	C231.223694,255.816422 229.911179,258.432220 228.815964,258.929077 
	C215.668549,264.893707 202.547653,264.181091 190.420959,256.645355 
	C185.249542,253.431732 181.392349,248.103271 177.236511,243.338715 
	C187.335632,232.815033 197.089890,222.643021 206.965897,212.590637 
	C209.803436,209.702423 212.992340,207.159424 216.020142,204.458160 
z"/>
<path fill="#C84C6A" opacity="1.000000" stroke="none" 
	d="
M231.173889,358.010132 
	C231.108627,345.315613 231.043365,332.621094 231.429001,319.460693 
	C233.127045,318.284088 234.619339,317.812378 235.582260,316.824615 
	C242.811050,309.409332 249.959396,301.914978 257.073486,294.389191 
	C258.602142,292.772095 259.888947,290.926453 261.287140,289.186096 
	C268.144714,292.054840 275.051880,294.815155 281.807404,297.906860 
	C282.844818,298.381622 283.754547,300.380280 283.760193,301.678345 
	C283.849396,322.149353 283.780853,342.621033 283.270081,363.397949 
	C282.527771,356.468903 282.263885,349.234436 282.000702,341.531342 
	C282.001373,330.872955 282.001373,320.683258 282.001373,309.188171 
	C278.920258,311.516907 276.780701,312.756531 275.115875,314.460114 
	C269.134094,320.581177 263.328308,326.873810 257.426636,333.073669 
	C250.246872,340.616180 243.091644,348.183868 235.785202,355.602203 
	C234.627045,356.778076 232.729553,357.225769 231.173889,358.010132 
z"/>
<path fill="#C64969" opacity="1.000000" stroke="none" 
	d="
M357.962524,221.988007 
	C357.926880,207.967987 357.891205,193.947983 358.320221,179.463348 
	C361.744568,177.611374 364.704224,176.224014 367.663879,174.836670 
	C367.834076,190.460144 368.435577,206.093475 368.078674,221.704895 
	C367.463074,248.632980 355.165588,268.660675 330.793457,280.550598 
	C316.818634,287.368195 301.995636,288.777435 286.322266,284.614685 
	C279.761047,281.011383 279.691925,279.933441 285.321075,275.377167 
	C285.698883,275.071381 286.183868,274.897949 286.618988,274.662933 
	C297.472321,276.561676 308.378632,277.530457 318.991272,273.770203 
	C340.752167,266.059937 353.636963,250.818054 357.491425,227.323425 
	C357.958344,225.219788 357.960449,223.603897 357.962524,221.988007 
z"/>
<path fill="#C34365" opacity="1.000000" stroke="none" 
	d="
M231.074951,358.469299 
	C232.729553,357.225769 234.627045,356.778076 235.785202,355.602203 
	C243.091644,348.183868 250.246872,340.616180 257.426636,333.073669 
	C263.328308,326.873810 269.134094,320.581177 275.115875,314.460114 
	C276.780701,312.756531 278.920258,311.516907 282.001373,309.188171 
	C282.001373,320.683258 282.001373,330.872955 281.650696,341.566956 
	C280.845367,342.265869 280.280426,342.348480 279.952271,342.671570 
	C271.487457,351.004669 262.981323,359.297546 254.632370,367.745728 
	C250.786087,371.637695 247.695526,376.399567 243.455032,379.743256 
	C239.448776,382.902313 237.512863,388.990326 231.160431,389.003906 
	C231.098953,378.978760 231.037476,368.953583 231.074951,358.469299 
z"/>
<path fill="#BF3F63" opacity="1.000000" stroke="none" 
	d="
M231.058411,389.430237 
	C237.512863,388.990326 239.448776,382.902313 243.455032,379.743256 
	C247.695526,376.399567 250.786087,371.637695 254.632370,367.745728 
	C262.981323,359.297546 271.487457,351.004669 279.952271,342.671570 
	C280.280426,342.348480 280.845367,342.265869 281.650024,342.035614 
	C282.263885,349.234436 282.527771,356.468903 283.136475,363.846924 
	C283.555969,366.714966 283.630676,369.439423 283.559265,372.597290 
	C281.687073,373.775818 279.512756,374.086548 278.304626,375.333405 
	C266.711060,387.298828 255.281555,399.423218 243.795166,411.492645 
	C243.576385,411.722534 243.236969,411.837646 242.564438,412.123169 
	C238.679535,407.211365 234.915588,402.339813 231.829956,397.071045 
	C230.706894,395.153412 231.200424,392.289032 231.058411,389.430237 
z"/>
<path fill="#D4586C" opacity="1.000000" stroke="none" 
	d="
M324.005096,132.100922 
	C329.659821,132.013931 335.321716,131.754639 340.963043,131.989288 
	C342.055786,132.034729 343.947815,133.983887 343.979126,135.096893 
	C344.236725,144.246658 344.028168,153.408615 344.212677,162.561813 
	C344.280975,165.950150 342.578857,166.309525 339.880066,166.289505 
	C325.563110,166.183334 311.245392,166.179871 296.470215,165.697510 
	C301.233765,159.222733 306.507080,153.235336 311.659912,147.145950 
	C315.849915,142.194366 319.895477,137.120529 324.005096,132.100922 
z"/>
<path fill="#E56B72" opacity="1.000000" stroke="none" 
	d="
M204.007599,132.102295 
	C209.149399,132.025864 214.295944,132.057495 219.431122,131.830933 
	C222.333023,131.702896 223.128098,132.904602 223.091858,135.642166 
	C222.975403,144.439514 222.929321,153.242844 223.141785,162.036972 
	C223.223831,165.432007 221.919937,166.278152 218.773666,166.243835 
	C205.493668,166.098938 192.211563,166.147568 178.471252,165.688950 
	C178.693069,163.982925 179.157318,162.520294 180.089462,161.474854 
	C186.599014,154.174072 193.315979,147.055222 199.711716,139.657791 
	C201.570282,137.508118 202.598663,134.640701 204.007599,132.102295 
z"/>
<path fill="#E56B72" opacity="1.000000" stroke="none" 
	d="
M271.009552,117.775322 
	C255.652817,117.850426 240.296066,117.925522 224.478516,117.528198 
	C224.513382,115.716972 224.669144,114.064262 225.564575,113.094620 
	C229.137360,109.225662 233.054398,105.673683 236.609207,101.789482 
	C238.349213,99.888275 239.574112,97.515656 241.032150,95.356392 
	C255.720505,95.303574 270.408844,95.250755 285.551788,95.665787 
	C283.806061,99.453712 281.663147,102.813660 279.390686,106.083588 
	C276.654480,110.020790 273.808197,113.881493 271.009552,117.775322 
z"/>
<path fill="#DF6874" opacity="1.000000" stroke="none" 
	d="
M215.566956,204.321167 
	C212.992340,207.159424 209.803436,209.702423 206.965897,212.590637 
	C197.089890,222.643021 187.335632,232.815033 177.185776,242.991608 
	C171.712814,236.609192 170.884155,228.809921 170.128448,221.083405 
	C169.708801,216.792816 170.151352,212.424728 169.999268,208.098801 
	C169.892136,205.051880 171.146332,204.002945 174.138992,204.031769 
	C187.796494,204.163330 201.455383,204.147232 215.566956,204.321167 
z"/>
<path fill="#EE7576" opacity="1.000000" stroke="none" 
	d="
M166.048782,95.476875 
	C177.611160,95.476875 189.173553,95.476875 200.133621,95.476875 
	C200.133621,103.027344 200.133621,110.270027 200.133621,118.054314 
	C183.745956,118.054314 166.841965,118.054314 149.479462,117.623840 
	C153.147369,112.401527 157.373062,107.690239 161.355560,102.781631 
	C163.167892,100.547852 164.499252,97.923866 166.048782,95.476875 
z"/>
<path fill="#D4586C" opacity="1.000000" stroke="none" 
	d="
M359.021332,95.386597 
	C366.314453,95.321915 373.618378,94.983932 380.897491,95.272430 
	C387.644806,95.539841 392.111206,100.119255 392.331116,106.129028 
	C392.578583,112.892365 389.046814,116.850113 381.066223,117.687164 
	C372.304535,117.255684 364.221375,117.057991 356.138092,117.052628 
	C354.095459,117.051277 352.052460,117.664032 350.009613,117.994598 
	C347.631989,118.018639 345.254333,118.042679 342.447083,117.614105 
	C342.479126,116.144196 342.725952,114.933884 343.437866,114.141350 
	C347.623474,109.481857 351.988647,104.982536 356.131317,100.286324 
	C357.363098,98.889908 358.072540,97.032684 359.021332,95.386597 
z"/>
<path fill="#BE3C62" opacity="1.000000" stroke="none" 
	d="
M307.287933,308.024750 
	C307.287933,335.075775 307.287933,362.126831 307.287933,389.569580 
	C304.192047,389.569580 300.979858,389.569580 297.094818,389.569580 
	C297.094818,366.328644 297.094818,343.147583 297.502258,319.421204 
	C298.634796,317.304138 299.407776,315.752411 300.075012,314.156464 
	C301.446075,310.876953 302.915741,307.756012 307.287933,308.024750 
z"/>
<path fill="#DA5F6E" opacity="1.000000" stroke="none" 
	d="
M358.563110,95.271713 
	C358.072540,97.032684 357.363098,98.889908 356.131317,100.286324 
	C351.988647,104.982536 347.623474,109.481857 343.437866,114.141350 
	C342.725952,114.933884 342.479126,116.144196 342.011963,117.515121 
	C330.312408,117.911903 318.618347,117.955070 306.470825,117.548248 
	C308.586151,113.990929 311.225037,110.938393 313.706055,107.762520 
	C316.877167,103.703285 319.920959,99.544571 323.019592,95.428719 
	C334.714691,95.338081 346.409760,95.247452 358.563110,95.271713 
z"/>
<path fill="#DE6370" opacity="1.000000" stroke="none" 
	d="
M322.561615,95.313484 
	C319.920959,99.544571 316.877167,103.703285 313.706055,107.762520 
	C311.225037,110.938393 308.586151,113.990929 306.012695,117.445450 
	C294.647644,117.855782 283.287323,117.918938 271.468292,117.878708 
	C273.808197,113.881493 276.654480,110.020790 279.390686,106.083588 
	C281.663147,102.813660 283.806061,99.453712 286.007385,95.779106 
	C298.040161,95.349129 310.071869,95.273689 322.561615,95.313484 
z"/>
<path fill="#F4817E" opacity="1.000000" stroke="none" 
	d="
M165.591980,95.341614 
	C164.499252,97.923866 163.167892,100.547852 161.355560,102.781631 
	C157.373062,107.690239 153.147369,112.401527 149.016388,117.550446 
	C143.527390,117.960434 138.038010,118.181229 132.559921,118.019226 
	C127.034035,117.855789 122.703339,113.800087 121.965019,108.563324 
	C121.189690,103.064072 124.365089,97.754761 129.825638,96.224861 
	C132.658722,95.431107 135.719421,95.202606 138.682678,95.166992 
	C147.498749,95.060989 156.317474,95.177063 165.591980,95.341614 
z"/>
<path fill="#E56B72" opacity="1.000000" stroke="none" 
	d="
M149.634781,242.116760 
	C148.446182,236.323471 146.391586,230.553802 146.232697,224.732407 
	C145.771057,207.818237 146.069229,190.883347 146.497620,173.482239 
	C148.232697,172.104599 149.500671,171.137497 150.855637,170.313416 
	C152.730957,169.172867 154.671753,168.139999 156.584518,167.061005 
	C156.673126,183.863693 156.596405,200.669739 156.935928,217.467361 
	C157.062515,223.730576 158.161499,229.974136 158.442474,236.624542 
	C155.256851,238.720520 152.445816,240.418640 149.634781,242.116760 
z"/>
<path fill="#E97377" opacity="1.000000" stroke="none" 
	d="
M203.545258,132.012054 
	C202.598663,134.640701 201.570282,137.508118 199.711716,139.657791 
	C193.315979,147.055222 186.599014,154.174072 180.089462,161.474854 
	C179.157318,162.520294 178.693069,163.982925 178.007111,165.617325 
	C176.681931,166.052887 175.356369,166.069656 174.043076,166.205307 
	C171.152832,166.503860 169.862305,165.517395 169.923813,162.343933 
	C170.093948,153.569107 170.110901,144.785706 169.909210,136.012115 
	C169.831604,132.635696 171.125717,131.765076 174.266083,131.817886 
	C183.869568,131.979385 193.477005,131.904663 203.545258,132.012054 
z"/>
<path fill="#D55F72" opacity="1.000000" stroke="none" 
	d="
M184.562592,269.735809 
	C197.048386,275.756592 210.093307,278.092621 223.720947,274.921906 
	C228.814987,273.736694 233.674728,271.544525 239.362961,269.559692 
	C241.173355,271.516602 243.499832,274.031403 245.843140,276.564392 
	C230.789566,288.885345 199.047272,291.506897 177.587952,277.091309 
	C179.993546,274.345093 182.278076,272.040436 184.562592,269.735809 
z"/>
<path fill="#D0576E" opacity="1.000000" stroke="none" 
	d="
M284.053894,180.326599 
	C302.832489,180.220230 321.612366,180.206116 340.388794,179.944733 
	C345.282867,179.876617 343.960205,183.126007 344.088837,185.701035 
	C344.222534,188.377304 344.663483,190.964874 340.329468,190.912048 
	C321.547852,190.683014 302.763062,190.718353 283.490814,190.197357 
	C283.352783,186.600296 283.703339,183.463455 284.053894,180.326599 
z"/>
<path fill="#C74967" opacity="1.000000" stroke="none" 
	d="
M216.704910,327.053955 
	C216.704910,347.815430 216.704910,368.576904 216.704910,389.368286 
	C216.082504,389.606171 215.633194,389.927094 215.183426,389.927734 
	C206.275024,389.940308 206.262329,389.932739 206.281113,380.927734 
	C206.311707,366.274902 206.360764,351.622162 206.815216,336.422333 
	C208.365341,334.151886 209.229431,332.127747 210.710709,330.783844 
	C212.425415,329.228210 214.683014,328.270966 216.704910,327.053955 
z"/>
<path fill="#D96071" opacity="1.000000" stroke="none" 
	d="
M323.544373,132.003082 
	C319.895477,137.120529 315.849915,142.194366 311.659912,147.145950 
	C306.507080,153.235336 301.233765,159.222733 296.007141,165.617889 
	C294.557373,165.981567 293.112976,165.981567 291.078308,165.981567 
	C291.078308,155.140259 291.003479,144.595261 291.237885,134.057144 
	C291.254456,133.313354 293.539581,132.021973 294.788574,131.998917 
	C304.217621,131.824936 313.651367,131.904739 323.544373,132.003082 
z"/>
<path fill="#D85C6D" opacity="1.000000" stroke="none" 
	d="
M247.065781,177.993744 
	C247.121902,189.982773 246.881699,201.983078 247.337311,213.956924 
	C247.645844,222.065796 248.932663,230.137436 249.416138,238.623169 
	C246.333069,240.346878 243.615768,241.673157 240.898483,242.999420 
	C239.621338,237.412567 237.462158,231.860641 237.239487,226.232101 
	C236.669266,211.817276 236.960342,197.368378 237.350723,182.465485 
	C240.884903,180.663162 243.975342,179.328461 247.065781,177.993744 
z"/>
<path fill="#E4717A" opacity="1.000000" stroke="none" 
	d="
M223.054749,184.961334 
	C223.588516,189.354019 222.330154,191.035736 217.919510,190.953720 
	C203.614594,190.687698 189.298157,190.685959 174.993515,190.962875 
	C170.356384,191.052628 169.946854,188.898804 169.912628,185.207291 
	C169.879349,181.620605 170.387390,179.818604 174.721695,179.900085 
	C189.359283,180.175262 204.006470,180.111862 218.647018,179.933685 
	C222.207260,179.890381 223.581635,181.045364 223.054749,184.961334 
z"/>
<path fill="#D0576E" opacity="1.000000" stroke="none" 
	d="
M325.565430,204.351837 
	C323.051331,206.462677 319.675964,208.009323 317.204926,210.465698 
	C310.661774,216.969955 304.569092,223.924759 298.172852,230.580811 
	C295.639893,233.216660 292.778168,235.536591 289.723511,238.014572 
	C289.957977,228.323532 290.727966,218.623947 291.012329,208.910141 
	C291.118683,205.277542 292.101593,203.958466 295.836517,204.048676 
	C305.592041,204.284286 315.355865,204.174438 325.565430,204.351837 
z"/>
<path fill="#DF6874" opacity="1.000000" stroke="none" 
	d="
M247.142975,177.530640 
	C243.975342,179.328461 240.884903,180.663162 237.429184,182.002747 
	C236.984268,166.534225 236.945953,151.060394 236.787262,135.587799 
	C236.758286,132.762543 237.837326,131.656128 240.611389,131.850662 
	C242.562302,131.987473 244.530548,131.877106 247.220184,131.877106 
	C247.220184,147.247543 247.220184,162.157532 247.142975,177.530640 
z"/>
<path fill="#DE6370" opacity="1.000000" stroke="none" 
	d="
M184.337006,269.464783 
	C182.278076,272.040436 179.993546,274.345093 177.419495,276.799377 
	C163.608749,269.118683 154.750778,257.545685 149.702789,242.488510 
	C152.445816,240.418640 155.256851,238.720520 158.419830,237.016418 
	C162.444336,251.497040 172.530579,260.933807 184.337006,269.464783 
z"/>
<path fill="#BB3962" opacity="1.000000" stroke="none" 
	d="
M315.345276,408.688660 
	C317.172485,412.232727 318.736511,415.517517 320.719849,419.682983 
	C308.022186,419.682983 296.873016,419.682983 285.430054,419.682983 
	C285.636902,412.365906 289.157257,407.358063 295.323120,404.713654 
	C302.482635,401.643127 309.284882,402.987671 315.345276,408.688660 
z"/>
<path fill="#C64969" opacity="1.000000" stroke="none" 
	d="
M197.994324,410.083496 
	C204.347290,403.354370 211.951782,401.524292 219.343979,404.699646 
	C224.911865,407.091339 228.547989,412.870361 228.508209,420.022247 
	C222.639297,420.022247 216.738663,420.020447 210.838013,420.022827 
	C206.695618,420.024506 202.549316,419.921692 198.411942,420.068298 
	C194.433914,420.209290 193.710068,418.492218 195.295700,415.212555 
	C196.083893,413.582275 196.950699,411.990021 197.994324,410.083496 
z"/>
<path fill="#D55F72" opacity="1.000000" stroke="none" 
	d="
M266.122559,227.083328 
	C266.449677,220.333603 266.863678,214.044403 267.012939,207.748917 
	C267.080811,204.885757 268.344543,203.711334 270.997345,204.125244 
	C273.448334,204.507675 277.564270,202.358612 277.697876,206.906830 
	C278.068542,219.522827 278.414398,232.209503 273.623718,244.283951 
	C273.095703,245.614716 272.296967,246.838028 271.343933,248.640442 
	C267.271423,243.984909 263.460846,239.968430 265.373535,233.466507 
	C265.927582,231.583054 265.875519,229.521301 266.122559,227.083328 
z"/>
<path fill="#D0576E" opacity="1.000000" stroke="none" 
	d="
M367.814392,174.476257 
	C364.704224,176.224014 361.744568,177.611374 358.411865,179.002380 
	C357.946075,164.396683 357.882141,149.787079 357.744751,135.178162 
	C357.697510,130.152740 361.434570,132.171524 363.827820,131.846680 
	C366.319366,131.508484 368.378967,131.665421 368.312653,135.269653 
	C368.074524,148.216141 368.062408,161.166779 367.814392,174.476257 
z"/>
<path fill="#ED7D7F" opacity="1.000000" stroke="none" 
	d="
M156.711426,166.601471 
	C154.671753,168.139999 152.730957,169.172867 150.855637,170.313416 
	C149.500671,171.137497 148.232697,172.104599 146.573853,173.021667 
	C146.133438,160.437119 146.076553,147.838501 145.941086,135.240723 
	C145.887466,130.255859 149.603333,132.153137 152.002884,131.902405 
	C154.437836,131.647964 157.052887,131.217346 156.977692,135.293930 
	C156.788101,145.573975 156.867020,155.858948 156.711426,166.601471 
z"/>
<path fill="#CC526C" opacity="1.000000" stroke="none" 
	d="
M261.099854,288.919800 
	C259.888947,290.926453 258.602142,292.772095 257.073486,294.389191 
	C249.959396,301.914978 242.811050,309.409332 235.582260,316.824615 
	C234.619339,317.812378 233.127045,318.284088 231.524780,319.001099 
	C231.099594,318.684692 230.969833,318.362244 230.968262,318.039246 
	C230.940247,312.256958 229.888382,306.229797 231.177750,300.754822 
	C232.753296,294.064606 240.936554,296.453735 245.304657,292.970245 
	C247.711716,291.050659 251.007355,290.265533 253.490997,288.416412 
	C256.260590,286.354370 258.506500,286.351776 261.099854,288.919800 
z"/>
<path fill="#D0576E" opacity="1.000000" stroke="none" 
	d="
M240.867889,243.379074 
	C243.615768,241.673157 246.333069,240.346878 249.397919,239.016815 
	C253.465881,247.238983 257.721008,255.105392 264.706116,261.119080 
	C266.701447,262.836914 268.731201,264.514832 270.854492,266.846436 
	C268.569305,269.689240 266.174835,271.896637 263.780396,274.104065 
	C252.771072,266.530579 245.313522,256.271698 240.867889,243.379074 
z"/>
<path fill="#E7787F" opacity="1.000000" stroke="none" 
	d="
M240.573242,95.242363 
	C239.574112,97.515656 238.349213,99.888275 236.609207,101.789482 
	C233.054398,105.673683 229.137360,109.225662 225.564575,113.094620 
	C224.669144,114.064262 224.513382,115.716972 224.022217,117.421127 
	C217.532547,117.768295 213.401260,114.243530 212.511978,107.962242 
	C211.762314,102.667152 215.161026,97.031403 220.827805,96.152855 
	C227.157455,95.171547 233.677292,95.416862 240.573242,95.242363 
z"/>
<path fill="#DF6D7A" opacity="1.000000" stroke="none" 
	d="
M268.139160,165.904022 
	C267.484406,158.481339 267.207611,151.250748 266.991333,144.018356 
	C266.926910,141.864441 267.019745,139.705215 267.062286,137.548843 
	C267.161743,132.512177 271.711639,129.772598 276.308624,132.236984 
	C277.217621,132.724304 277.746368,134.662628 277.768219,135.943436 
	C277.915527,144.568970 277.749237,153.200836 277.961670,161.823837 
	C278.054596,165.596603 276.779388,167.064575 273.004028,166.337326 
	C271.554382,166.058090 270.030365,166.164673 268.139160,165.904022 
z"/>
<path fill="#D26379" opacity="1.000000" stroke="none" 
	d="
M216.827637,326.594604 
	C214.683014,328.270966 212.425415,329.228210 210.710709,330.783844 
	C209.229431,332.127747 208.365341,334.151886 206.938522,335.976807 
	C206.492538,325.136353 206.145309,314.192291 206.265350,303.253357 
	C206.320892,298.194336 210.656525,300.713165 213.174698,300.208862 
	C215.851883,299.672760 217.113968,300.787018 217.055862,303.710693 
	C216.907349,311.183289 216.971344,318.660126 216.827637,326.594604 
z"/>
<path fill="#DA6C7D" opacity="1.000000" stroke="none" 
	d="
M283.593994,180.205902 
	C283.703339,183.463455 283.352783,186.600296 283.043732,190.079910 
	C276.647614,190.568069 270.209656,190.699631 263.772522,190.863998 
	C259.840363,190.964386 260.273346,188.148575 260.369659,185.692154 
	C260.465851,183.238068 259.404602,179.974136 263.768280,180.001495 
	C270.223450,180.041946 276.678772,180.058502 283.593994,180.205902 
z"/>
<path fill="#C14467" opacity="1.000000" stroke="none" 
	d="
M339.483887,291.678528 
	C338.621704,293.850037 337.939087,296.848511 336.065643,298.218506 
	C324.912445,306.374298 320.676056,317.076202 322.966705,330.576965 
	C323.213623,332.032196 322.999908,333.565552 323.000549,335.531342 
	C322.777252,340.550690 322.553284,345.101349 322.014343,349.829559 
	C321.559601,337.394379 322.002991,324.739258 321.089691,312.182831 
	C320.399078,302.687958 321.786469,295.844299 332.665131,294.278015 
	C334.889587,293.957764 336.967682,292.621155 339.483887,291.678528 
z"/>
<path fill="#CC526C" opacity="1.000000" stroke="none" 
	d="
M263.968323,274.393524 
	C266.174835,271.896637 268.569305,269.689240 271.021606,267.130219 
	C276.121155,269.203278 281.162903,271.627991 286.411804,274.357788 
	C286.183868,274.897949 285.698883,275.071381 285.321075,275.377167 
	C279.691925,279.933441 279.761047,281.011383 285.928223,284.498230 
	C278.721771,281.454956 271.439026,278.068970 263.968323,274.393524 
z"/>
<path fill="#C95C7B" opacity="1.000000" stroke="none" 
	d="
M307.478760,307.695190 
	C302.915741,307.756012 301.446075,310.876953 300.075012,314.156464 
	C299.407776,315.752411 298.634796,317.304138 297.575378,318.960938 
	C297.156677,314.121460 297.283264,309.181335 296.920654,304.277374 
	C296.634308,300.404877 298.545715,299.913544 301.663300,300.127045 
	C304.666870,300.332733 308.405701,299.160797 307.832001,304.416077 
	C307.725311,305.393555 307.721100,306.382172 307.478760,307.695190 
z"/>
<path fill="#E7787F" opacity="1.000000" stroke="none" 
	d="
M350.328644,118.250153 
	C352.052460,117.664032 354.095459,117.051277 356.138092,117.052628 
	C364.221375,117.057991 372.304535,117.255684 380.681824,117.673462 
	C376.616180,118.238083 372.258789,118.682228 367.896088,118.742271 
	C362.148804,118.821342 356.397339,118.598656 350.328644,118.250153 
z"/>
<path fill="#C84C6A" opacity="1.000000" stroke="none" 
	d="
M283.591736,393.760742 
	C283.210175,390.500092 283.000397,386.871185 283.139099,383.105865 
	C283.579559,386.443787 283.671570,389.918121 283.591736,393.760742 
z"/>
<path fill="#C74967" opacity="1.000000" stroke="none" 
	d="
M221.390274,434.001282 
	C220.408264,433.776306 219.815918,433.550171 219.067673,433.035156 
	C221.349991,432.606567 223.788193,432.466797 226.623627,432.495361 
	C225.273880,433.109192 223.526901,433.554688 221.390274,434.001282 
z"/>
<path fill="#C74967" opacity="1.000000" stroke="none" 
	d="
M235.609909,432.276733 
	C234.412766,432.670990 232.806717,432.931915 231.089600,432.892273 
	C232.386017,432.442261 233.793503,432.292816 235.609909,432.276733 
z"/>
<path fill="#D0576E" opacity="1.000000" stroke="none" 
	d="
M357.720978,222.268250 
	C357.960449,223.603897 357.958344,225.219788 357.626312,226.924042 
	C357.357422,225.524445 357.418427,224.036484 357.720978,222.268250 
z"/>
<path fill="#F27A78" opacity="1.000000" stroke="none" 
	d="
M132.413940,181.866791 
	C132.030167,181.153427 131.833313,180.213531 131.929916,179.088837 
	C132.349197,179.816101 132.475037,180.728195 132.413940,181.866791 
z"/>
<path fill="#C14467" opacity="1.000000" stroke="none" 
	d="
M345.681244,288.060883 
	C345.162689,288.671875 344.314178,289.310822 343.089294,289.917847 
	C343.592377,289.286896 344.471832,288.687836 345.681244,288.060883 
z"/>
</svg>