<?xml version="1.0" encoding="UTF-8"?>
<svg version="1.1" viewBox="0 0 2048 686" width="862" height="289" xmlns="http://www.w3.org/2000/svg">
<path transform="translate(291,130)" d="m0 0h309l10 3 8 6 6 9 1 3v16l-3 8-5 6-9 6-11 3-1 122-3 15-6 16-8 13-8 10-7 7-14 10-17 8-11 3 1 122 8 9 4 8 2 9v12l-4 5-4 1h-61l-5-5v-18l4-10 9-10 1-122-18-7-13-7-3-1-19 10-12 4h-2l1 122 8 8 5 11 1 4v14l-5 5-28 2h-35l-5-4-1-3v-14l4-11 7-9 3-3 1-122-9-2-16-7-12-8-10-9-9-10-8-13-5-11-4-13-1-6-1-17v-109l-9-1-8-4-7-7-4-8-1-3v-13l4-9 7-8 10-5zm7 14-12 1-6 4-4 8 1 8 6 7 4 2 6 1h81l2-1-2-10v-9l3-8v-3zm106 0-8 2-5 4-3 6v7l4 7 7 4 7 1h189l8-2 6-5 2-4v-9l-4-6-6-4-7-1zm-97 45-1 5v113l3 17 5 13 7 11 9 10 7 7 14 9 13 5 15 3h18l14-3 13-5 7-4-2-5-7-7-6 2-10 4-11 2h-15l-16-4-12-6-9-7-9-10-6-10-5-16-1-6-1-118zm29 0v45h66l1-1v-44zm82 0v122l4 17 8 16 10 13 10 9 14 8 12 5 14 3h19l14-3 13-5 12-7 12-11 9-11 7-14 4-13 1-6v-123h-14l-1 106-2 21-5 14-7 11-8 9-10 7-11 5-11 3-6 1h-14l-16-4-14-7-10-9-8-9-7-15-3-13-1-11v-89l-1-20zm38 0-1 1v44h14l1-1v-43l-1-1zm29 0v45h66l1-1v-44zm-149 59v15l1 1h43l23-1v-14l-1-1zm112 0-1 6v8l1 2h78l26-1v-14l-1-1zm-112 30v29l4 15 7 11 8 8 11 7 13 4h19l14-5 2-3-6-15-4-18-1-32-1-1zm119 0-1 25-2 14v6l8 12 3-1 5-14 2-13v-28l-1-1zm30 0-1 25-2 17-5 16-3 7v3l12 5 4 1h19l12-4 9-5 10-9 7-11 4-12 1-7v-26zm8 118-1 1v112h15v-112zm-101 0-11 1-1 111 1 1h14l1-2-1-110zm-10 127-8 4-5 6-4 10 1 2h45l-2-8-5-8-5-4-6-2zm112 0-8 4-6 7-3 8v3h45l-1-7-4-8-9-6-3-1z" fill="#DC375C"/>
<path transform="translate(746,187)" d="m0 0h36l16 3 15 6 12 9 8 9 7 14 4 13 3 18v42h-53l-1-1-1-38-2-17-5-10-5-4-6-2-12-1-12 2-8 5-6 10-2 9-1 10v164l2 12 4 10 5 6 8 4 4 1h16l9-4 3-1 2-4 4-10 2-18 1-39h54l1 1-1 41-3 18-4 15-6 12-7 9-8 8-10 6-9 4-20 4-20 1-21-2-17-5-10-5-10-8-8-8-8-14-5-12-5-25-1-11v-139l3-23 5-19 8-16 10-12 11-8 11-5 16-4z" fill="#DC375C"/>
<path transform="translate(1283,190)" d="m0 0h52v309h-52v-14l-8 6-11 7-13 4-13 1-13-2-10-5-10-9-6-8-5-12-4-18-1-10v-96l3-21 5-16 7-13 7-8 11-7 12-3h13l14 3 13 7 9 6-1-2v-48zm-22 120-8 2-5 4-4 9-2 8-1 40v44l1 27 3 12 4 6 3 3 5 2h9l12-4 4-2 1-2v-141l-8-5-12-3z" fill="#DC375C"/>
<path transform="translate(1431,275)" d="m0 0h21l16 3 13 5 10 7 7 7 8 13 5 15 2 12v104l-3 16-5 13-7 10-7 8-12 8-15 5-15 2h-15l-15-2-14-5-11-7-8-8-7-11-5-13-3-14-1-11v-85l2-18 4-15 7-13 9-10 7-6 13-6 12-3zm6 36-6 3-5 6-3 10-1 9v100l2 14 5 10 8 4h11l6-3 4-5 3-11 1-11v-94l-1-14-4-11-5-5-6-2z" fill="#DC375C"/>
<path transform="translate(1760,275)" d="m0 0h21l15 3 11 4 10 6 7 6 7 10 5 10 4 13 2 19v87l-2 18-6 18-7 11-10 10-12 7-13 4-15 2h-15l-15-2-13-5-10-6-11-11-8-14-4-13-2-13v-101l3-16 5-13 6-10 9-10 11-7 11-4zm5 36-6 3-5 7-3 11-1 18v80l1 16 3 11 4 6 4 3 3 1h11l6-3 4-5 3-8 1-7v-110l-2-10-4-8-5-4-4-1z" fill="#DC375C"/>
<path transform="translate(945,275)" d="m0 0h19l16 3 16 8 9 9 6 10 5 13 2 9 1 16 1 127 2 22v7l-45 1-3-9-3-19-1-2-7 14-11 12-10 5-10 2h-14l-10-3-10-7-8-8-6-10-4-12-1-5v-20l4-16 8-15 11-12 12-9 14-8 16-7 21-8h3l-1-32-2-8-4-6-5-2h-11l-6 3-4 6-2 10-2 17h-16l-25-1-8-1 1-17 5-19 7-13 9-10 11-7 9-4 12-3zm22 113-18 12-12 11-6 9-3 10v18l6 12 7 4h10l10-5 7-8 1-62z" fill="#DC375C"/>
<path transform="translate(1598,275)" d="m0 0h16l14 3 16 8 9 8 9 13 6 15 2 10-12 6-19 8h-3l-6-16-6-10-9-6-4-1h-7l-7 3-5 6-1 3v8l5 10 8 9 8 7 40 36 12 15 8 16 2 8v21l-3 12-5 10-9 10-11 8-13 5-13 3h-15l-15-2-13-4-11-7-10-9-8-11-6-12-3-9 1-5 14-6 21-8h2l5 15 6 11 8 7 5 2 10 1 9-3 5-5 1-3v-12l-6-12-4-4v-2l-4-2-7-7-11-9-14-12-8-7-7-6-7-8-9-13-4-10-1-4-1-14 1-14 4-12 9-13 9-8 14-7 11-3z" fill="#DC375C"/>
<path transform="translate(1152,276)" d="m0 0h14v54l-13-3h-13l-10 3-9 6-7 7-2 3-1 153h-52l-1-13v-150l1-55 3-3h48l1 2v25l-1 6 4-4 7-10 9-10 10-7z" fill="#DC375C"/>
</svg>
